<?xml version="1.0" encoding="UTF-8"?><svg
  id="Layer_2"
  xmlns="http://www.w3.org/2000/svg"
  viewBox="0 0 300 265.21"
  fill="#F0F0F5"
>
  <g id="Layer_1-2">
    <g>
      <path
        d="m104.19,186.98l-25.01,77.74c-39.37-19.61-63.89-42.7-68.55-47.27-.06-2.74.07-7.32,1.17-12.51,1.63-7.72,5.58-19.78,15.12-33.36,5.73-8.15,12.57-15.63,20.22-22.49,18.21,16.14,37.38,28.84,57.06,37.89Z"
      />
      <path
        d="m164.35,0l-26.16,81.32c-29,9.53-54.08,20.93-74.81,34.03-5.47,3.46-10.65,7.04-15.52,10.73-4.74,3.6-9.19,7.3-13.36,11.11-8.97,8.19-16.58,16.86-22.77,25.94-3.43,5.02-6.24,9.9-8.52,14.55C-.99,143.87-.37,116.41,1.15,98.04c1.36-16.4,3.42-25.56,3.42-25.56.04-.04.09-.09.13-.12C55.5,23.78,162.44.41,164.35,0Z"
      />
      <path
        d="m195.81,78.23L220.82.49c39.37,19.61,63.89,42.7,68.55,47.27.06,2.74-.07,7.32-1.17,12.51-1.63,7.72-5.58,19.78-15.12,33.36-5.73,8.15-12.57,15.63-20.22,22.49-18.21-16.14-37.38-28.84-57.06-37.89Z"
      />
      <path
        d="m135.65,265.21l26.16-81.32c29-9.53,54.08-20.93,74.81-34.03,5.47-3.46,10.65-7.04,15.52-10.73,4.74-3.6,9.19-7.3,13.36-11.11,8.97-8.19,16.58-16.86,22.77-25.94,3.43-5.02,6.24-9.9,8.52-14.55,4.19,33.81,3.58,61.27,2.06,79.65-1.36,16.4-3.42,25.56-3.42,25.56-.04.04-.09.09-.13.12-50.8,48.57-157.73,71.94-159.65,72.35Z"
      />
    </g>
  </g>
</svg>
